# xmcd
# Track frame offsets:
# 150
# 17771
# 32546
# 50961
# 67475
# 78327
# 97132
# 117045
# 126603
# 142592
# 166075
#
# Disc length: 2463 seconds
# Revision: 0
# Processed by: cddbd v1.5.1PL0 Copyright (c) Steve Scherf et al.
# Submitted via: VisiTrax 2.9.10.220 - For more info visit www.synapsa.com
#
DISCID=98099d0b
DTITLE=Virginia Ground - Virginia Ground
DYEAR=2004
DGENRE=Rock
TTITLE0=Wreckless Man
TTITLE1=Uptown,Downtown
TTITLE2=Seven Year Cold Sweat
TTITLE3=Back For You
TTITLE4=Hit The Ground Runnin'
TTITLE5=Stormy Night
TTITLE6=Naked Second
TTITLE7=Big Bad Brother
TTITLE8=The River Song
TTITLE9=Late September
TTITLE10=Impossible To Please
EXTD=From Bristol Tn.
EXTT0=
EXTT1=
EXTT2=
EXTT3=
EXTT4=
EXTT5=
EXTT6=
EXTT7=
EXTT8=
EXTT9=
EXTT10=
PLAYORDER=
